<?xml version="1.0" encoding="utf-8"?>
<!-- Generator: Adobe Illustrator 16.0.0, SVG Export Plug-In . SVG Version: 6.00 Build 0)  -->
<!DOCTYPE svg PUBLIC "-//W3C//DTD SVG 1.1//EN" "http://www.w3.org/Graphics/SVG/1.1/DTD/svg11.dtd">
<svg version="1.1" id="Layer_1" xmlns="http://www.w3.org/2000/svg" xmlns:xlink="http://www.w3.org/1999/xlink" x="0px" y="0px"
	 width="157.25px" height="233.25px" viewBox="0 0 157.25 233.25" enable-background="new 0 0 157.25 233.25" xml:space="preserve">
<path fill-rule="evenodd" clip-rule="evenodd" fill="#FFFFFF" d="M137.592,87.601l-0.151-2.417l-2.101-1.334v-9.608
	c1.727,0,0.716-0.439,2.506-0.439V67.51h-2.621c9.693-8.362,3.665-20.757,9.395-29.247c0.363-1.035,2.621-3.125,3.451-4.265
	c-1.15-2.006-5.176-5.427-6.135-6.06c-0.299,0.844-2.6,2.829-3.983,4.054c-4.602,0.444-8.947,2.429-13.08,4.286
	c-1.832-3.737-7.158-8.636-11.248-12.817V5.597h-5.282v13.978c-4.197-2.913-9.268-6.165-13.335-7.601
	c0.596,1.773,3.216,11.361,3.856,13.768c1.277,4.92,1.874,9.714,1.66,13.896c-3.854-9.334-9.458-18.098-12.866-25.509l1.705-0.001
	V8.299h-9.565V0l-2.918,0.064L73.896,0v8.172h-9.565V14h1.704c-3.408,7.412-9.011,16.176-12.867,25.509
	c-0.213-4.182,0.383-8.975,1.662-13.895c0.638-2.407,3.259-11.994,3.856-13.768c-4.069,1.436-9.011,5.11-13.335,7.602V5.469h-5.283
	v17.864c-4.09,4.182-9.416,9.081-11.248,12.818c-4.132-1.858-8.479-3.844-13.08-4.287c-1.384-1.225-3.686-3.209-3.984-4.054
	c-0.958,0.634-4.983,4.054-6.135,6.06c0.832,1.14,3.09,3.231,3.452,4.266c5.73,8.488-0.299,20.883,9.394,29.246h-2.62v6.292
	c1.79,0.04,1.47,0.01,3.195,0c0.979,1.619,0.95,5.94,0,9.608l-2.79,1.773l0.061,2.56L0,87.619
	c4.813,32.433,4.708,69.805,13.974,101.317c2.576,4.583,4.117,10.169,7.008,14.292c30.672,46.139,100.606,36.388,120.976-12.827
	c6.797-22.138,8.339-49.193,12.032-72.921c0.865-10.065,2.533-20.235,3.061-29.881L137.592,87.601z"/>
<path fill-rule="evenodd" clip-rule="evenodd" d="M148.873,120.307c-3.009,22.512-4.814,45.623-10.995,67.579
	c-3.892,14.677-19.581,27.843-32.782,34.326c-36.836,15.513-77.364,0.16-88.198-40.73c-6.821-29.634-7.504-59.624-11.477-89.615
	l146.621-0.079c-0.561,8.194-1.966,16.944-2.647,25.177L148.873,120.307L148.873,120.307z M137.592,87.601l-0.151-2.417l-2.1-1.334
	v-9.608c1.726,0,0.715-0.439,2.505-0.439V67.51h-2.62c9.692-8.362,3.664-20.757,9.394-29.247c0.362-1.035,2.62-3.125,3.451-4.265
	c-1.15-2.006-5.176-5.427-6.135-6.061c-0.299,0.845-2.599,2.83-3.984,4.054c-4.601,0.443-8.946,2.429-13.079,4.287
	c-1.832-3.738-7.157-8.636-11.248-12.818V5.596h-5.282v13.979c-4.197-2.914-9.268-6.166-13.336-7.602
	c0.597,1.774,3.217,11.361,3.855,13.768c1.278,4.92,1.875,9.714,1.662,13.895c-3.855-9.334-9.458-18.097-12.867-25.509h1.704V8.299
	h-9.565V0l-2.918,0.063L73.895,0v8.172H64.33V14h1.704c-3.408,7.412-9.011,16.175-12.866,25.509
	c-0.213-4.181,0.383-8.975,1.661-13.895c0.639-2.407,3.26-11.994,3.856-13.768c-4.069,1.436-9.011,5.11-13.335,7.602V5.469h-5.283
	v17.865c-4.09,4.181-9.416,9.08-11.248,12.818c-4.132-1.858-8.479-3.843-13.08-4.287c-1.384-1.225-3.686-3.21-3.983-4.055
	c-0.959,0.634-4.985,4.055-6.135,6.061c0.831,1.14,3.089,3.23,3.451,4.266c5.73,8.489-0.298,20.884,9.394,29.246h-2.62v6.292
	c1.79,0.041,1.47,0.01,3.195,0c0.979,1.618,0.95,5.941,0,9.608l-2.791,1.774l0.061,2.559L0,87.619
	c4.813,32.434,4.708,69.805,13.975,101.317c2.575,4.583,4.116,10.169,7.008,14.292c30.671,46.139,100.605,36.388,120.976-12.827
	c6.797-22.138,8.338-49.193,12.032-72.922c0.865-10.065,2.533-20.234,3.061-29.881L137.592,87.601L137.592,87.601z M155.277,89.251
	L1.963,89.272c5.172,36.053,2.998,76.396,18.598,109.854c6.438,12.262,17.752,21.176,30.101,26.91
	c36.097,14.229,73.818-1.402,89.777-36.242c6.797-23.583,8.296-48.357,11.947-72.546C153.167,107.916,154.708,98.562,155.277,89.251
	L155.277,89.251z M97.054,36.565c-1.792-1.149-4.321-2.507-6.007-3.447c-2.107-6.164-4.11-12.013-5.901-18.072l1.159,0
	C87.99,19.12,94.313,28.939,97.054,36.565L97.054,36.565z M56.447,36.565c2.74-7.625,9.063-17.445,10.749-21.519l1.159,0
	c-1.792,6.059-3.794,11.909-5.901,18.072C60.767,34.058,58.238,35.416,56.447,36.565L56.447,36.565z M41.291,63.917l2.083-0.341
	v3.975h-2.083V63.917L41.291,63.917z M112.235,63.917v3.634h-2.135v-3.975L112.235,63.917L112.235,63.917z M35.892,64.807
	l4.111-0.781v3.505l-3.259-0.021L35.892,64.807L35.892,64.807z M44.902,67.552v-4.097c4.069-0.887,8.394-1.71,12.547-2.154
	c1.491,2.471,3.344,4.54,5.198,6.25H44.902L44.902,67.552z M117.608,64.807l-0.853,2.703l-3.26,0.021v-3.505L117.608,64.807
	L117.608,64.807z M108.597,67.552H90.852c1.853-1.71,3.707-3.78,5.198-6.25c4.154,0.443,8.479,1.267,12.547,2.154V67.552z"/>
<linearGradient id="SVGID_1_" gradientUnits="userSpaceOnUse" x1="-1.77" y1="83.8306" x2="132.1305" y2="181.115">
	<stop  offset="0" style="stop-color:#00AEEF"/>
	<stop  offset="1" style="stop-color:#002E6E"/>
</linearGradient>
<path fill-rule="evenodd" clip-rule="evenodd" fill="url(#SVGID_1_)" d="M8.19,100.419l-0.723-5.847l-0.08-1.034l142.608,0.318
	c-0.481,7.637-1.806,15.274-2.447,22.871c-3.611,23.667-4.775,48.129-11.437,71.199c-7.824,22.792-32.462,36.753-55.494,38.662
	c-18.619,0.438-35.552-5.091-48.272-19.411c-14.927-16.149-17.535-41.128-19.823-61.812C10.918,130.41,9.795,115.335,8.19,100.419z"
	/>
<path fill-rule="evenodd" clip-rule="evenodd" d="M48.271,143.522l-0.426-5.697l1.285-1.569v-9.658
	c-1.565,0.353-2.297,1.409-3.365,2.702l-0.219-7.238c0.457,0.017,2.105,0.075,2.691,0.075c0.802,0.04,2.126-2.625,2.568-2.267
	c0.16,0.159-1.124,2.864-1.124,4.097c0,1.233,6.501,11.733,9.35,14.637c-0.522,0.279-3.13-1.869-5.137-1.869
	c-0.963,0,0.241,3.182-0.682,3.182c-1.726,0-2.689-0.795-2.689-0.795c0.402,1.074,0.923,2.983,0.402,3.5
	C49.789,142.334,48.889,142.746,48.271,143.522L48.271,143.522z M21.384,129.272c-1.068-1.26-2.119-2.155-3.686-2.482l0,10.017
	l1.329,1.443l-1.434,24.513l23.244-0.016c0.216,0.085,0.44,0.115,0.659,0.08c1.806,2.983,5.458,5.171,8.627,2.227
	c0.401,0.995,0.722,5.091,3.371,4.694c0-0.398,0.321-1.074,0.481-1.472c2.568-0.597-0.201,1.75,1.043,3.699
	c-2.407,0-2.166,2.188-2.167,2.625c-1.766-1.909-4.855-3.302-6.741-1.393c2.488,1.114,3.01,1.313,2.367,5.25
	c-1.043-1.313-5.256-2.307-8.667-1.71c1.564,0.995,3.812,2.585,4.414,4.137c0.683,8.194-2.006,17.342,6.38,19.967
	c3.29,5.927,6.139,6.364,10.834,6.166c0.562,1.074,2.93,3.063,4.695,3.42c-0.602,0.875-0.481,2.427-0.08,3.62
	c7.784-3.659,5.417,1.313,13.803,1.273c0.923-1.074,4.936-1.511,4.936-0.517c0,1.114,1.124,2.665,1.124,2.665
	c1.244-3.222,6.901-2.108,10.192-3.699c1.645-1.949,3.129-2.546,3.129,0.278l0.321-0.357c7.945-2.864,21.388-10.063,19.582-18.934
	c2.567-1.71,5.497-5.847,2.487-8.393c0.763-1.393,0.683-2.824,0.08-4.455c0-2.028,1.565-3.54,2.93-4.495
	c-1.846-0.557-3.973-1.75-3.692-4.017c-0.642-1.83-0.842-3.023-1.443-2.904c0.602-0.676,1.203-1.472,1.645-1.83
	c-3.17-0.955-7.223-1.671-9.068-4.455c9.35,0.557,16.532-2.148,22.912,8.87c0.762-2.108,0.16-5.41-0.401-7.16
	c0.521,0,1.084,1.353,1.484,1.71c1.646-6.284-0.602-8.83-3.731-11.654c0.441-3.779-2.247-6.046-3.25-5.926
	c5.417-1.949,5.176-18.616-0.201-20.247c-0.08,0.517-0.521,1.272-0.682,1.313c-0.2-1.671-2.407-5.25-4.654-5.091
	c0.802,2.108,0.24,5.966-0.643,8.552c-0.763,3.023-9.068,10.023-11.998,10.023c1.244-3.302,1.886-6.444,1.646-9.586
	c0.762-1.034,1.203-1.035,1.444-3.938c0.643-0.438,3.651-1.551,3.451-3.46c2.527,0.159,4.414-2.029,4.855-4.813
	c-1.164-0.756-3.973-1.432-5.137-2.625c-13.081-7.795-8.988-14.12-17.775-14.836c-0.121-2.546-4.414-2.665-6.06-2.665
	c-1.444,0,1.886-4.495,4.534-8.114c-1.846-0.239-6.219-0.239-7.985,1.313l-2.769-2.625l-3.21,2.427
	c-0.281-1.114-4.253-2.427-7.624-1.273c2.087,2.426,4.896,4.933,4.855,8.751c-3.692,2.705-6.34-0.199-8.948,5.647l0.963,0.12
	c-1.244,1.352-1.725,3.262-0.682,4.933c-0.842,2.347,0.602,3.381,1.164,4.813c0.482-0.199-10.272-1.71-4.013-10.421
	c-0.08-1.272-4.374,0.398-5.417,1.79c-5.056,8.512,3.933,10.103,11.637,12.172c0.882,0.915,1.524,3.459-0.482,3.659
	c-0.642-0.955,0-2.506,0-3.5c-1.766,0.478-3.009,1.909-3.17,3.778l-0.201,1.831c-0.441,1.312,0.081,1.074,0,2.267
	c-5.296,1.472-12.399-10.739-15.448-14.041c3.25-1.91,5.778-2.785,3.411-7.478c1.685-1.551,1.043-3.46-0.441-4.932
	c-0.763,3.182-1.605,1.79-3.772,2.387c-2.889,0.079-3.291,2.705-4.374,3.778l-0.642-0.397c4.133-4.495-3.972-10.541-5.056-9.507
	c0,0.075,0.283,1.394,0.555,3.151c-0.765,0.319-1.239,0.789-1.959,1.861c-1.044-1.592-2.167-2.585-3.973-3.022v6.603l-2.97,0
	l0-6.602c-1.846,0.436-3.009,1.591-3.732,2.982c-0.682-1.471-1.887-2.626-3.691-3.062v6.602h-3.09l0.001-6.602
	c-1.767,0.438-2.85,1.511-3.853,3.023c-1.002-1.432-1.926-2.506-3.332-2.943l0.001,12.051l2.246,0.08L21.384,129.272L21.384,129.272
	z M80.939,186.534c-2.448-1.909,0.081-5.211-3.611-3.46c-1.806-0.955-1.164-3.063-0.642-4.733c0-6.881,2.929-4.296,7.624-7.438
	c2.006,0,4.093,1.71,4.534,3.103c0.562,1.67-0.2,2.903-0.081,2.983c1.044,0.597,0.723,2.108,0.723,2.824
	c0,1.233-0.723,2.546-1.846,3.341c-0.723,0.397-2.006-0.358-2.648,0.397c0.562,0.08,0.562,1.153,0.923,1.591
	C85.273,185.459,83.387,186.534,80.939,186.534L80.939,186.534z M79,122.859c-0.517-0.99-0.895-2.49-2.341-3.565
	c-0.792-0.58-1.583-0.443-2.634-0.648c1.05-1.553,2.255-2.508,3.976-3.19c0.844-0.188,1.704,0,1.842,0.682
	c0,1.433,0.723,3.156,0.723,4.896C80.24,121.75,80.17,122.467,79,122.859z"/>
<path fill-rule="evenodd" clip-rule="evenodd" fill="#FFFFFF" d="M35.757,103.681c0.16-0.2,0.481-0.397,0.722-0.478v6.286h4.695
	v-6.286h0.04c1.445,0.756,2.126,2.069,3.05,3.421c0.281-0.478,1.525-2.307,2.046-2.665l0.039,8.016h-25.88v-8.534
	c1.003,0.518,1.886,2.148,2.528,3.063l0.883-1.313c0.321-0.438,1.645-2.068,2.127-2.068v6.284h4.734v-6.284
	c1.405,0.517,2.287,2.626,2.93,3.779C34.191,105.749,34.713,104.396,35.757,103.681L35.757,103.681z M46.35,112.232v0.04
	l-0.046,0.037L46.35,112.232L46.35,112.232z M44.585,113.693l-0.162,0.13l0.125,2.981H22.611l0.094-3.128L44.585,113.693
	L44.585,113.693z M44.559,118.177l0.048,1.89H22.523l0.068-1.89H44.559L44.559,118.177z M44.664,121.589l0.071,2.292H22.397
	l0.069-2.292H44.664L44.664,121.589z M44.769,124.963l0.147,3.938c-0.6-0.786-1.785-1.423-3.006-1.928h-0.021v5.102h-4.088v-5.172
	c-1.92,0.521-2.827,1.239-3.823,2.907c-0.685-1.041-2.294-2.64-3.942-3.043l-0.094,5.261h-4.216v-5.192
	c-0.642,0-2.782,1.38-3.188,1.804l-0.324,0.39l0.151-4.066H44.769L44.769,124.963z M32.236,144.532l3.404-0.022
	c0.15-0.615,0.643-1.442,0.899-2.037h-5.203L32.236,144.532L32.236,144.532z M36.304,128.189L36.304,128.189l-0.057,0.03
	l-0.056,0.031l0,0l-0.055,0.032v0l-0.054,0.033l0,0l-0.053,0.033l-0.053,0.035l0,0l-0.051,0.035v0l-0.05,0.035v0l-0.05,0.036v0
	l-0.049,0.037l0,0l-0.048,0.038l0,0l-0.047,0.039v0l-0.047,0.039v0l-0.046,0.04l-0.045,0.041l-0.044,0.041l-0.044,0.042v0
	l-0.043,0.042l-0.042,0.043v0l-0.042,0.043l-0.042,0.044l-0.041,0.044v0l-0.04,0.044l0,0l-0.039,0.045l-0.039,0.046l-0.038,0.046
	l-0.038,0.047l-0.038,0.047l0,0l-0.037,0.048l-0.036,0.047l-0.036,0.048l-0.036,0.048l-0.035,0.049L34.8,129.59l-0.034,0.049
	l-0.034,0.049l-0.033,0.05l-0.033,0.05l-0.033,0.05l-0.032,0.05l-0.032,0.051l-0.032,0.05l-0.031,0.05l-0.031,0.051l-0.031,0.051
	l-0.031,0.051l-0.03,0.051l-0.03,0.051l-0.03,0.051l-0.03,0.051l-0.03,0.051l-0.03,0.051l-0.029,0.051l-0.03,0.05l-0.029,0.051
	l-0.029,0.05l-0.029,0.05l-0.029,0.05l-0.029,0.05L34,130.901l-0.029,0.05L33.942,131l-0.029,0.049l-0.029,0.049
	c-0.686-1.04-1.691-2.929-3.339-3.333v4.839h-5.46v-4.839c-0.643,0-2.142,1.379-2.548,1.804l-0.985,1.188l-0.167-0.2l-0.036-0.042
	l-0.005-0.006c-0.687-0.827-1.673-2.052-2.661-2.531v7.725H48.23l0.021-7.513c-0.551,0.283-2.073,1.914-2.512,2.454l0,0.001
	l-0.001,0.001l-0.003,0.004l-0.002,0.002l-0.002,0.002l-0.002,0.002l-0.002,0.002l-0.003,0.005l-0.002,0.002l-0.001,0.002
	l-0.001,0.001l-0.001,0.001l-0.002,0.002l-0.001,0.002l-0.001,0.002l-0.002,0.002l-0.001,0.002l-0.002,0.002l-0.001,0.002
	l-0.002,0.002l-0.001,0.002l-0.001,0.002l-0.001,0.002l0,0l-0.001,0.002l-0.001,0.002l-0.002,0.002l0,0.001l-0.001,0.001
	l-0.001,0.002l-0.002,0.001l-0.001,0.001l0,0.001l-0.001,0.001l-0.001,0.002l-0.001,0.002l-0.001,0.002
	c-1.05-1.252-1.434-2.208-3.126-2.908h-0.022v4.839h-5.438v-4.839l-0.011,0.003l-0.011,0.003l-0.012,0.003l-0.012,0.003
	l-0.012,0.004l-0.012,0.004l-0.012,0.004l-0.013,0.004l-0.013,0.004l-0.013,0.004l-0.013,0.004l-0.013,0.004l-0.013,0.005
	l-0.013,0.004l-0.014,0.005l-0.013,0.005l-0.014,0.005l-0.014,0.005l-0.014,0.005l-0.014,0.005l-0.014,0.005l-0.014,0.005
	l-0.014,0.006v0l-0.014,0.005l-0.014,0.006l-0.014,0.006l-0.014,0.006l-0.014,0.006l-0.014,0.006l-0.014,0.006v0l-0.014,0.006
	l-0.014,0.006l-0.014,0.007l-0.014,0.006l-0.014,0.007l-0.014,0.006L36.608,128l-0.014,0.007l-0.013,0.007l-0.013,0.007
	l-0.013,0.007l-0.013,0.007l-0.013,0.007l-0.013,0.007l-0.013,0.007l-0.013,0.007v0l-0.012,0.007l-0.012,0.007v0l-0.012,0.007
	l-0.012,0.007v0l-0.012,0.007l-0.011,0.007v0l-0.011,0.007l0,0l-0.011,0.007l-0.011,0.007v0l-0.01,0.007l-0.01,0.007v0l-0.01,0.007
	l-0.009,0.007v0l-0.009,0.007l0,0l-0.009,0.007v0l-0.009,0.006v0l-0.008,0.006v0L36.304,128.189L36.304,128.189z M30.083,147.865
	c0.159-0.279,0.344-0.543,0.569-0.786c0.214-0.19,0.899-0.594,0.899-0.594l-1.843-3.9c0.217-0.065,0.439-0.125,0.665-0.18
	l1.327,2.934l4.475-0.021l1.35-2.969c0.308,0.069,0.608,0.146,0.9,0.233l-1.843,3.904c0,0,0.685,0.403,0.899,0.594
	c0.224,0.243,0.409,0.507,0.568,0.786H30.083L30.083,147.865z M38.544,148.968h-8.956c-0.202,0.563-0.36,1.143-0.543,1.698v0.275
	h10.043l0-0.275C38.904,150.111,38.747,149.53,38.544,148.968L38.544,148.968z M39.09,151.796H29.043l-0.001,0.78h10.05
	L39.09,151.796L39.09,151.796z M39.093,153.429H29.04l-0.001,0.993h10.056L39.093,153.429L39.093,153.429z M39.097,155.276h-10.06
	l-0.002,1.035h10.064L39.097,155.276L39.097,155.276z M39.101,157.165H29.033l-0.002,0.929h10.071L39.101,157.165L39.101,157.165z
	 M39.104,158.948H29.029l-0.001,1.018h10.078L39.104,158.948L39.104,158.948z M39.107,160.751H29.026l-0.001,0.604h10.083
	L39.107,160.751L39.107,160.751z M42.184,145.975c-0.484-1.1-1.108-2.09-2.214-2.797c-0.221-0.108-0.453-0.209-0.692-0.303
	l-1.689,3.228c1.049,0.467,1.841,1.57,2.419,4.287l0.084,8.644c0.593,0.225,1.232,0.5,1.282,0.253
	c-0.561-2.426,0.321-3.779,1.405-4.415c-1.846-1.154-1.806-5.091-0.2-5.648c-0.041-0.676-0.081-1.631-1.686-2.585
	C41.213,146.313,41.666,146.104,42.184,145.975L42.184,145.975z M28.019,161.355l0.106-10.965c0.578-2.717,1.371-3.82,2.42-4.287
	l-1.688-3.225c-0.236,0.092-0.465,0.192-0.684,0.3c-1.806,1.114-2.368,3.063-3.13,4.972l-0.521,13.206H28.019L28.019,161.355z
	 M47.641,136.532l-0.76,0.933l0.095,1.273H19.961l0.071-1.21l-0.918-0.996H47.641L47.641,136.532z M47.062,139.884l0.085,1.146
	h-27.32l0.067-1.146H47.062L47.062,139.884z M47.208,141.857h-8.839c2.854,0.725,3.795,2.153,4.567,3.986
	c1.941-0.219,4.305,0.302,4.417,0.079c0.026-0.218,0.063-0.433,0.111-0.642L47.208,141.857L47.208,141.857z M23.733,162.024
	l-5.136-0.025l0.193-3.29h5.055L23.733,162.024L23.733,162.024z M23.891,157.351H18.87l0.101-1.718h4.978L23.891,157.351
	L23.891,157.351z M23.994,154.274H19.05l0.084-1.443h4.908L23.994,154.274L23.994,154.274z M24.089,151.472h-4.874l0.089-1.528
	h4.836L24.089,151.472L24.089,151.472z M24.186,148.585h-4.802l0.126-2.142h5.375c-0.214,0.541-0.429,1.112-0.684,1.707
	L24.186,148.585L24.186,148.585z M25.475,145.084c0.737-1.467,1.787-2.605,4.257-3.227h-9.954l-0.189,3.227H25.475L25.475,145.084z
	 M41.291,63.917l2.083-0.341v3.975h-2.083V63.917L41.291,63.917z M112.235,63.917l-2.135-0.341v3.975h2.135V63.917L112.235,63.917z
	 M118.024,63.725c-6.851-1.462-13.805-2.821-20.339-3.656c6.217-15.774,7.587-22.354,0.737-44.396
	c8.642,3.133,20.971,15.355,26.029,22.563C122.766,46.802,120.975,56.099,118.024,63.725L118.024,63.725z M35.476,63.725
	c6.85-1.462,13.805-2.821,20.338-3.656c-6.217-15.774-7.587-22.354-0.737-44.396c-8.642,3.133-20.971,15.355-26.029,22.563
	C30.733,46.802,32.525,56.099,35.476,63.725L35.476,63.725z M89.166,32.448c0-1.253-2.424-8.774-3.267-8.774
	c0.105,2.193,0.105,4.91,0.105,7.103C87.058,31.194,88.111,31.821,89.166,32.448L89.166,32.448z M68.54,20.083h5.618v-5.887h-3.651
	L68.54,20.083L68.54,20.083z M84.912,20.083h-5.578v-5.887h3.651L84.912,20.083L84.912,20.083z M64.334,32.448
	c0-1.253,2.423-8.774,3.267-8.774c-0.105,2.193-0.105,4.91-0.105,7.103C66.442,31.194,65.388,31.821,64.334,32.448z"/>
<linearGradient id="SVGID_2_" gradientUnits="userSpaceOnUse" x1="39.6777" y1="108.6836" x2="119.5496" y2="108.6836">
	<stop  offset="0" style="stop-color:#FFCB05"/>
	<stop  offset="0.46" style="stop-color:#FFF200"/>
	<stop  offset="1" style="stop-color:#FFCB05"/>
</linearGradient>
<path fill-rule="evenodd" clip-rule="evenodd" fill="url(#SVGID_2_)" d="M81.978,102.199l-0.344-1.195l10.98,0.068l-0.481,1.161
	L81.978,102.199L81.978,102.199z M81.41,100.271l11.927-0.034c0.499-1.877,1.755-3.703,2.909-5.17c-4.044,0-5.611,1.655-7.917,3.941
	l-0.499-0.171l1.738-2.696l-2.513-1.723l-2.324,1.757l1.326,2.662h-0.964c-1.515-2.491-4.01-3.617-7.229-3.855
	C79.241,96.653,80.979,98.411,81.41,100.271L81.41,100.271z M46.815,103.393c-0.034-0.905-0.207-1.86-0.757-2.884
	c0.964,0.495,1.928,0.87,2.324,2.218C47.625,102.897,47.263,103.018,46.815,103.393L46.815,103.393z M60.739,139.135
	c0.792-0.529,1.239-1.877,0.93-2.662c-0.844-1.365-2.444-4.487-0.757-8.564c1.721,0,4.096,3.77,7.539,2.986
	c-2.703-1.587-11.928-12.916-13.356-15.065c1.429-0.887,2.806-1.911,3.683-2.781c1.463-2.662,0.293-5.92-2.925-5.92
	c-1.962,0.614-3.253,2.337-4.131,3.565c-0.757-0.512-1.239-0.785-1.721-0.99c2.599-2.576,1.273-6.892-2.823-5.408
	c0,2.423,0.292,5.05,0.292,7.217c-1.687,3.89-1.618,5.374-1.05,9.895c0.758-0.307,1.463,0,1.842-0.085
	c5.628-6.381,2.926-0.222,2.324,2.32C53.39,128.984,56.695,135.313,60.739,139.135L60.739,139.135z M116.762,126.646
	c-6.937-1.842-13.58-9.656-17.59-15.235c1.17-1.706,1.377-2.661,1.377-4.691c3.219,0,4.905,3.327,6.179,5.801
	c4.974,5.698,7.263,8.274,14.646,10.731C121.374,125.179,118.482,126.749,116.762,126.646L116.762,126.646z M110.29,130.536
	c1.704,0,6.024-0.273,5.267-3.02c-7.538-1.86-12.479-9.742-18.003-14.724c-0.585,0.785-2.719,1.041-3.597,1.041
	C99.138,119.532,103.526,127.159,110.29,130.536L110.29,130.536z M107.33,135.074c-3.89-0.511-6.213-3.975-9.226-6.824
	c-0.998-2.457-3.666-3.788-4.768-6.193c-0.499-0.307-0.809-0.699-1.549-0.733l-0.551,0.034c-0.275,0.103-0.275,1.262-0.843,1.587
	c0,1.893,0,3.736-0.602,5.919l-0.878,0.444c-5.232-1.467-10.55-1.16-15.852,0.512l-0.327-0.836c0-0.478,0-0.836,0-1.535
	c1.049-0.461,2.633-0.768,3.889-0.768c0.276-0.307,0.62-0.648,0.878-1.382c0-0.529,0-1.399,0-2.15l-0.464-0.682
	c-2.255-3.463-13.373-0.887-13.373-8.957c0.292-2.457,1.549-3.736,3.666-4.094c-0.619,2.644-1.721,4.418,1.515,8.36
	c2.943,3.02,5.852,0.989,8.193,3.19c0.877,0.904,1.325,2.73,2.34,3.873c1.463-1.143,2.702-3.087,2.358-5.459
	c0-0.99-0.396-2.491-0.895-3.583c-0.602-0.648-0.912-1.125-1.876-1.552c-9.885,1.508-4.736-6.639-2.889-7.34
	c0.016-0.002,0.011-0.036-0.01-0.035c-1.01-0.094-1.545,0.135-2.333,0.721c1.05-2.457,3.305-2.116,5.645-2.679
	c0.964-0.307,2.358-1.774,3.167-1.859c2.926-0.563,5.525-0.563,9.173,0.085c0.655,0,1.033,1.211,1.446,1.211
	c0.448,0,0.517-0.955,1.876-0.665c1.343,0.17,2.582,0,3.58,2.388c0.517,4.931-2.909,6.841-7.091,6.125
	c2.083,4.794,8.021,10.169,11.308,14.485c3.081,2.508,4.492,4.112,6.833,5.306c1.032,0.307,2.564,0,3.734-0.341v0.341
	c-0.344,0.307-0.344,1.297-0.93,1.621c-0.809,0.631-1.772,0.768-2.702,1.467c-0.516,0-1.411,0-1.996,0L107.33,135.074
	L107.33,135.074z M90.566,144.867c-4.957-2.115-1.859-12.027,0.189-15.389c0.448-2.388,0.31-4.845,1.136-7.319
	c1.549,0.853,2.65,2.968,3.718,4.299c0,1.689-2.031,6.381-3.89,9.691C90.755,138.811,91.065,142.394,90.566,144.867L90.566,144.867z
	 M82.478,109.651c-2.106-1.87,1.444-4.637,2.438-1.343c0.072,1.49,1.766,1.651,2.602,0.699c-2.193-3.088-4.318-4.585-6.53-3.438
	C78.813,106.698,79.111,108.444,82.478,109.651L82.478,109.651z M43.528,148.177c-0.62-0.716-0.757-1.672-2.203-1.501
	c0.964-0.427,2.203-0.614,3.528,0.051C44.372,147.086,43.528,147.597,43.528,148.177L43.528,148.177z M51.583,142.53
	c0.241-0.905,0.379-0.854-0.034-2.32c2.461,0.58,2.616,1.945,1.687,3.344C52.22,144.032,50.998,143.622,51.583,142.53L51.583,142.53
	z M58.657,144.1c-0.619,0-0.826-0.324-1.601-0.545c-0.964-0.563-2.134-1.501-2.667-2.73c0-0.887-0.138-1.621-0.138-2.645
	l0.672-0.358c1.394,0.784,3.442,1.723,5.37,1.723l0.172,0.87c0.361,0.085,0.361,1.211,0.878,1.638c-0.774,0-1.05-0.427-1.601-0.921
	l-0.327,0.392c0,0.802-0.121,1.467-0.121,2.576H58.657L58.657,144.1z M51.032,165.938c0.964,0.12,1.153,0.529,1.824,0.751
	c-0.103,0.648-0.137,1.586-0.31,1.996C51.515,169.162,51.084,165.887,51.032,165.938L51.032,165.938z M41.412,159.966
	c-0.758,0.205-1.205,0.12-1.687-0.392c0.24,1.996,0.688,2.32,1.944,2.303C41.498,161.331,41.119,160.82,41.412,159.966
	L41.412,159.966z M59.414,206.082c-2.014-1.434-5.25-5.528-2.237-7.558c0.861,0.205,3.855,1.245,4.733,1.74
	C61.91,201.577,60.877,206.082,59.414,206.082L59.414,206.082z M54.13,200.06h0.671c0.362-1.024,1.136-1.894,1.928-2.645
	c-0.93-1.792-0.792-4.351-0.723-6.381C52.994,187.963,48.588,199.224,54.13,200.06L54.13,200.06z M48.382,198.729
	c-0.964-0.699-1.669-1.416-2.255-2.559c-1.033-4.521-1.721-9.622-1.153-14.467c0-0.529-0.241-1.399-0.361-1.979
	c-0.241-0.99-1.842-1.382-2.324-2.286c0.912,0,2.444-0.119,3.7,0.461c0.62,0.443,1.894,1.041,2.393,1.501l0.207,1.382
	c-0.121,5.937-1.601,12.284,0.447,18.136L48.382,198.729L48.382,198.729z M56.522,190.198c-0.585-0.597-2.168-0.495-3.201-0.12
	c-0.138-2.303-0.138-4.487,0.327-7.08c1.325,1.075,3.081,0,4.854,0.58C58.984,185.063,58.037,189.004,56.522,190.198L56.522,190.198
	z M58.898,182.999c1.291-0.171,1.566-1.451,3.081-1.45c-0.069-1.092,0.104-2.15-0.069-2.9c-2.806-2.03-5.972-1.638-8.381,0.989
	C53.528,184.33,57.693,181.173,58.898,182.999L58.898,182.999z M49.673,181.702c-0.723,5.101-0.723,10.475-0.155,15.508
	c0.757,2.849,5.731,8.905,8.52,8.905c-1.067-0.716-2.479-3.736-2.547-5.271c-5.611,0-5.387-6.313-2.564-9.81
	c-1.136-4.981,0.396-10.407-0.241-15.184c-0.895-0.648-1.859-1.519-2.272-1.843c-1.239-0.426-1.669-0.546-2.633-0.546
	c0.964,0.87,1.17,1.587,1.394,2.389C49.173,177.795,49.552,179.894,49.673,181.702L49.673,181.702z M53.321,178.102
	c0-3.173,1.446-7.575,5.215-4.965l-0.637,0.716C58.209,177.709,57.28,176.362,53.321,178.102L53.321,178.102z M58.898,172.318
	c1.17-0.682,1.566-1.535,2.633-1.535c0-1.109,0-1.792,0-2.576l-0.379-0.665c-1.446-0.12-2.254-0.12-3.321,0
	c-0.345,0.665-1.309,0.665-1.653,0.938c-0.241,1.194-0.93,1.587-0.93,2.44l0.551,0.631C56.97,171.772,57.831,171.636,58.898,172.318
	L58.898,172.318z M114.404,194.787c2.874,0,5.111-0.887,6.626-3.753c2.357-3.361-2.048-3.361-0.104-6.398
	c0.189-2.218-0.946-5.528,1.807-6.807c-1.032-0.921-2.443-1.143-2.65-2.406c0-2.047-2.633-5.033-2.633-5.357
	c0.791-0.205,1.17-0.427,1.531-0.819c-4.475-0.836-10.017-3.497-10.017-8.718c-3.115-2.287,0.534-5.955-7.314-6.33
	c-2.789-0.648-2.874-3.105-6.85-3.105c-2.117-0.733-6.609-6.466-8.279-6.791c-6.523,3.225-11.772,8.837-20.395,7.78
	c-2.875-1.331-6.179-0.495-8.847-0.99c-0.757-4.333,1.704-5.169-2.926-7.78c-1.067,0.666-1.498,2.064-3.528,1.229
	c-1.273-0.717-0.723-2.013-2.324-0.563c0,2.354,4.682,4.504,2.892,7.25l-0.431-0.136c-1.205-10.509-12.65-0.529-7.762,3.583
	c1.928-0.273,2.1,0.478,3.821,1.245l-0.482,0.479c-1.239,0-1.996-1.007-3.7-0.836c-3.58,4.726,1.893,13.802,6.041,8.462
	c-0.499-1.28,1.394-3.736,2.392-4.453l0.414,0.682c-1.928,1.894-1.583,3.088-0.964,5.562c3.202,0,2.375,1.911,4.768,2.116
	c6.695-2.781,1.566-8.36,1.997-8.906c1.412,0,1.412,2.269,2.255,3.224c8.382,1.45,18.089,0.904,26.78,1.399
	c3.132-2.559,5.198-4.623,8.605-6.056c2.014,1.876,4.733,4.077,6.523,6.397c-1.343,0.666-2.1,2.303-4.234,1.519
	c-0.31-0.29-0.791-1.007-0.31-1.519c-1.687,0-2.736,0.239-2.736-1.842c-1.274,0-2.237-0.99-1.566-2.252
	c-2.564,0.819-3.821,3.514-6.282,4.606c-3.27-0.136-6.282-0.478-9.053-0.478c0,4.453,14.458,5.51,12.392,12.267
	c2.823,0.614,3.063-2.406,2.168-4.351l0.895-0.341c1.17,1.945,0.517,5.715-2.237,5.715l-0.241,0.291
	c2.65,6.466,10.86,3.856,8.898-4.743l0.517-0.478c2.736,3.907,2.702,2.815,6.385,2.815c3.288-2.576,1.842-3.719,0.672-6.927
	l0.413-0.426c3.976,2.968,5.146,2.218,9.276,2.218c2.668,2.798,1.429,5.92,4.424,8.07c-0.173,1.876-1.515,1.791-2.909,1.791
	c3.201,4.231,1.652,8.616-3.321,10.203C114.955,191.836,114.508,193.201,114.404,194.787L114.404,194.787z M57.968,106.924
	c0.861-0.563,1.498-0.563,1.498-2.047c0.361,0.956,0.637,2.32-0.172,3.481C59.036,107.829,58.536,106.993,57.968,106.924
	L57.968,106.924z M109.878,155.633c-0.827-0.136-1.309-0.545-2.049-1.058c-0.086-0.802-0.998-0.904-1.67-2.03l-0.396-0.256
	c-0.603-1.143-1.205-2.542-2.117-3.583c-0.499-3.48,2.238-6.005,2.686-9.571c0.327-1.023,0.757-2.184,1.497-3.242
	c1.067,0.102,2.393,0.375,3.545,0l0.207,0.375c-0.207,4.965-3.115,9.486-2.083,14.792c0.637,1.023,1.205,2.184,2.376,3.377
	l-0.293,1.058C111.134,155.633,110.583,155.497,109.878,155.633L109.878,155.633z M102.804,153.108l1.273-0.222
	c-0.431-1.501-1.515-2.064-1.79-3.225c-1.016-5.033,2.548-9.298,3.167-13.768c-0.465-0.375-4.096-2.286-4.768-2.712
	c0,6.995-5.886,7.319-2.909,16.293C98.861,149.9,102.149,152.22,102.804,153.108L102.804,153.108z M96.091,149.235
	c-9.483-3.668-1.893-14.536,0.121-20.694c0.792,1.194,2.306,2.149,3.339,3.31c0.31,6.057-5.938,10.305-3.081,17.146L96.091,149.235
	L96.091,149.235z M78.966,136.269c1.446-0.511,7.384-0.443,8.089-0.17c0.172-0.989,0.104-2.184,0.774-3.292
	c-1.222-0.205-2.271-0.085-3.098,0.12c-1.997,0.563-2.892,1.706-4.389,2.183L78.966,136.269L78.966,136.269z M68.605,138.112
	c-3.528-0.256-10.706-4.026-7.074-8.804c3.115,2.064,5.766,3.208,9.569,2.679c5.697-2.32,11.634-4.282,17.417-1.723
	c0.31,0.392-0.654,1.313-0.654,1.825C80.205,131.577,79.276,137.259,68.605,138.112L68.605,138.112z M131.649,155.787
	c-2.564-2.338-8.916-2.645-13.201-3.174c4.836-2.661,8.984-5.391,13.029-9.298c0,4.214-1.429,4.282-3.77,7.046
	c0.603,0.785,2.461,0.785,2.53,1.621C130.358,152.579,132.148,155.241,131.649,155.787L131.649,155.787z M133.818,170.151
	l-0.001-0.648c0.465-2.047-0.619-3.753-0.24-5.271l0.24-0.239c0.465,0.239,0.758,0.239,1.688,0.802
	c0.275-0.887-0.259-1.723-0.259-2.644c-0.671-1.894-1.428-3.02-2.237-4.129c-4.784-3.48-11.308-3.89-17.193-4.248l-0.207-1.161
	c6.093-2.951,11.515-5.732,15.834-11.243c0.74-2.832,0.327-7.49-1.601-9.691c-1.273,3.157-0.413,4.556-2.479,7.78
	c-3.7,5.596-8.675,9.213-16.229,10.612l-0.172,0.29l0.412,1.109c1.102,1.211,1.653,1.842,2.031,3.071
	c-0.379,1.024-1.17,1.775-2.031,2.201c-0.791,0.137-1.703-0.136-2.323,0.137c-0.189,0.75-0.551,1.143-0.551,1.501l0.551,1.16
	c0.62,0.273,0.965-0.409,1.532-0.102l0.379,0.529c-0.087,0.563-0.946,0.921-0.946,1.672l0.206,0.921l1.531,1.092
	c6.368-0.341,13.666-1.296,18.777,2.645C131.856,167.251,133.146,168.838,133.818,170.151L133.818,170.151z M110.497,149.116
	c0-0.836,0-1.519,0-2.61c0.723-0.546,1.204-0.819,1.875-1.399c11.05-6.466,12.668-10.032,12.857-16.958
	C133.887,134.563,120.651,148.672,110.497,149.116L110.497,149.116z M58.364,149.986c0-0.904,0.534-3.651-0.327-5.118l1.377,0.153
	c0.413,2.73,0.413,3.327,2.564,4.965C60.567,150.105,59.414,150.361,58.364,149.986L58.364,149.986z M66.402,150.6
	c7.866,1.177,12.357-4.47,17.848-7.029c0.723-0.085,1.17-0.733,1.394-1.143c-3.046-1.058-6.403,0.854-8.984,1.467
	c-0.344,0.495-1.067,0.495-1.549,0.648c-4.854,1.996-10.309,1.075-14.732-1.399C59.827,147.751,62.581,149.439,66.402,150.6
	L66.402,150.6z M85.816,141.234l0.654-0.154c-0.034-0.716,0-1.535-0.034-2.115c-2.083,0.631-4.458,1.825-5.663,2.269
	C82.546,141.234,84.353,140.926,85.816,141.234L85.816,141.234z M67.435,144.543c-3.563-0.648-6.196-3.054-4.733-7.081
	c8.279,4.658,15.542-2.559,23.356-0.102l-0.448,0.99C79.276,140.415,74.371,144.543,67.435,144.543L67.435,144.543z M73.2,125.589
	h1.222c-0.258-0.375,0.207-2.337,0.207-2.44C73.269,123.507,73.2,125.214,73.2,125.589L73.2,125.589z M73.958,117.092
	c0.499-0.563,0.413-1.16,1.704-1.603c-0.878-0.307-1.876-0.717-2.806-1.075C72.856,115.403,73.699,116.7,73.958,117.092
	L73.958,117.092z M102.081,207.225c-0.775-0.255-1.36-0.426-1.98-1.109l-0.757-0.87c0-0.682,0.413-1.843,1.084-2.627
	c0.844-0.239,1.55-0.239,2.616-0.375c0.878-0.239,1.48-0.529,2.083-1.109l0.637,0.58c0.121,0.291,0.843,0.291,1.635,0.666
	c0.379,0.546-0.138,0.956,0,1.706c-0.138,0.478-0.138,1.16-0.792,1.501c-0.722,0.495-1.204,1.211-2.615,1.382
	C103.595,206.969,102.838,207.225,102.081,207.225L102.081,207.225z M93.131,206.355c0.912,0,1.704,0,2.599,0
	c1.239-0.273,1.824-1.109,2.582-1.433c0.55-0.666,1.032-1.757,1.17-2.679c-0.774-0.666-1.669-0.819-1.928-1.194l-0.792-1.058
	c-1.669,0.853-4.148,1.723-6.196,1.143c-0.121,0.768-0.362,1.109-0.362,1.638c0.362,0.921,0.654,1.552,1.119,2.15
	C92.029,205.399,92.494,205.792,93.131,206.355L93.131,206.355z M100.188,201.714c-0.706-0.58-1.722-0.989-2.634-2.047
	c0-0.631,0-1.501,0-2.252c1.79,0.273,3.718-0.307,5.284-1.161c0.447-0.409,0.964-1.075,1.687-1.467
	c0.241,0.665,0.431,0.938,1.239,1.535c0.482,1.092-0.206,2.201-0.361,3.344l-0.878,0.887c-0.275,0.29-1.377,0.29-1.687,0.87
	C101.978,201.424,101.271,201.424,100.188,201.714L100.188,201.714z M107.691,201.714c2.323,0.188,4.337-0.87,5.336-2.49
	l0.446-1.058c0-0.75,0.104-1.553,0.104-1.996l-0.104-0.443c-1.204,1.023-1.841,1.586-3.339,1.962
	c-1.17-0.273-2.048,0.239-3.218-0.375c-0.379,1.092-0.671,2.457-1.153,3.242C105.885,201.578,107.502,201.134,107.691,201.714
	L107.691,201.714z M91.444,200.554c-2.048,0-4.458-4.385-2.289-6.091c1.48,0,3.339-0.17,4.801-0.921
	c0,2.081,1.756,2.371,2.806,3.565C96.763,199.667,93.682,200.623,91.444,200.554L91.444,200.554z M108.087,196.75l-1.17-0.495
	l-1.032-0.802c-0.121-0.666-0.758-0.75-0.93-1.706c0.172-0.683-0.431-0.683-0.259-1.638c0.706,0,1.549,0,2.564-0.137
	c1.309-0.58,2.634-1.774,3.58-2.968c0.998,0.358,1.704,0.358,2.736,0.887c0.259,0.955,0,1.501,0.139,2.662
	c-0.138,1.075-0.689,1.433-1.051,2.627l-0.637,0.546c-0.396,0.443-0.964,0.597-2.014,1.023
	C109.378,196.75,108.775,196.75,108.087,196.75L108.087,196.75z M97.777,196.613c-3.373,0-2.943-4.641-1.687-6.534
	c1.463,0,3.133-0.375,4.337-1.331C104.955,193.235,105.247,195.624,97.777,196.613L97.777,196.613z M89.792,193.627l-0.189-0.393
	h-0.568l-1.084-0.375c-0.482-0.307-0.843-0.546-1.566-1.211c-0.499-1.45-0.826-2.645-0.241-4.18l0.964-0.921
	c0.517,0,0.843,0,1.601,0c0.895,0,1.687-0.563,2.358-0.956l0.654,0.802c0.688,1.16,1.824,2.61,3.494,3.498
	c-0.086,0.955-0.964,1.945-1.67,2.662C92.89,193.235,91.324,193.627,89.792,193.627L89.792,193.627z M105.127,191.239
	c-5.646-1.45-1.601-3.855-3.149-7.08c1.617,0.904,3.339-0.085,4.268-1.331c2.324,3.157,6.558,2.952,2.221,7.371
	C107.502,190.522,106.366,191.393,105.127,191.239L105.127,191.239z M96.297,189.209c-0.395,0-0.877-0.41-1.566-0.444
	c-1.118-0.393-1.239-1.621-2.237-2.542c0-0.443-0.534-0.835-0.534-1.501c0.723-0.563,0.757-0.887,1.48-1.638l-0.723-0.392
	l-0.344,0.307c-0.655,0.58-1.412,1.535-2.221,2.184c-1.119,0.598-2.53,0.598-3.804,0l0-0.46c0.636,0,0.963,0,1.721-0.188l0.361-0.58
	c0.792-0.871,1.273-2.116,1.841-3.566l0.293-0.375c0.224,0.546,1.032,0.768,1.394,1.536c1.807,0.29,4.612,1.058,6.058-0.375
	c0.912,1.519,2.926,2.662,3.632,4.743l-0.224,0.989l-0.481,0.648l-0.431,0.41C99.585,188.543,97.777,189.158,96.297,189.209
	L96.297,189.209z M113.578,189.004c-2.806-1.536-1.739,0.256-2.272-2.951c2.41-1.724,5.129-0.99,5.663-5.426
	C120.531,184.073,118.38,189.004,113.578,189.004L113.578,189.004z M110.772,185.148c-4.733,0-2.307-5.016-2.892-7.08
	c5.697,1.399,5.593-3.14,8.227,1.569C116.556,182.691,113.577,185.148,110.772,185.148L110.772,185.148z M102.39,183.408
	c-1.084-0.802-2.633-1.365-3.803-2.627c0.964-1.144,2.22-3.463,1.928-5.852c2.633,1.638,2.529,1.519,5.73,1.16
	C107.261,179.723,106.779,183.408,102.39,183.408L102.39,183.408z M118.81,179.262c-2.702-0.614-1.704-0.546-3.373-2.815
	c1.445-1.194,0.379-3.31,1.532-4.538c1.411,1.467,0.172,4.845,2.649,6.739L118.81,179.262L118.81,179.262z M110.29,177.709
	c-1.67-0.273-1.721-0.512-2.788-1.859c0.964-2.15,1.756-3.702,1.067-6.176c2.805,1.723,4.096,1.246,7.143,1.723
	C116.606,175.628,113.474,176.908,110.29,177.709L110.29,177.709z M97.417,164.607c0-1.365,0.206-1.774,1.6-2.32l1.084,1.313
	C99.431,164.402,98.707,164.982,97.417,164.607L97.417,164.607z M96.005,162.833c-0.637,0.324-1.36-0.119-0.964-0.75
	c0.327-1.16,0.413-1.365,1.583-1.911c0.637,0.461,0.877,0.956,1.394,1.399C97.21,162.457,97.262,162.492,96.005,162.833
	L96.005,162.833z M94.129,160.888c-0.929,0.205-1.291,0-0.757-1.348l0.757-1.16h0.809l1.153,1.228
	C95.455,160.052,95.454,160.632,94.129,160.888L94.129,160.888z M85.954,215.892c-0.396-0.58,0-1.501-0.396-2.099
	c0.5-1.229,1.601-1.314,1.997-2.389c0.43,0,0.964,0,1.48,0c1.17-0.12,1.532-0.716,2.564-1.075c0.896,0.75,1.601,1.826,3.236,2.149
	c0.292,0.085,0.74-0.324,1.17,0.085c-0.43,0.426-0.912,0.733-2.048,1.229c-1.549,0-3.098,0-4.922,0.272
	C87.83,214.322,86.986,215.227,85.954,215.892L85.954,215.892z M77.314,214.714c-0.999-0.563-2.892-2.03-4.08-2.678
	c-1.05-0.631-2.134-0.222-3.425-0.427c-1.205,0.205-2.048,0.87-3.132,1.382l-0.207-0.427c0-0.409,0.207-0.751,0.344-1.484
	l0.62-0.495c2.788-1.757,5.834,0,9.363-0.375c0,0.87,0.447,1.194,0.516,2.03c0.758,0.75,1.566,1.058,2.53,1.911
	c-0.568,0.478-0.843,0-1.669,0.478L77.314,214.714L77.314,214.714z M81.634,213.298c1.205,0,2.685-0.307,3.683-0.733
	c0.637-0.409,0.74-0.956,1.119-1.28c-0.551-0.699-1.549-0.955-2.014-1.365c-0.843-0.938-1.772-1.621-1.997-2.951
	c-1.411,0.665-2.22,0.665-3.339,0.785c-0.723,0.682-1.256,1.228-1.842,1.638c0.069,0.528,0.258,0.938,0.258,1.467
	c0.774,0.955,1.498,2.098,2.496,2.133C80.773,212.992,81.015,213.298,81.634,213.298L81.634,213.298z M99.757,212.565
	c4.234-1.484,7.504-3.583,10.671-5.596c3.288-2.884,6.541-5.92,7.745-10.22c-0.447-0.58,0.001-1.297-0.447-1.57
	c-0.844,0.99-2.323,0.546-3.185,0.546c0.104,1.279-0.344,2.201-0.344,3.19c-0.481,1.075-0.792,1.348-1.395,2.132
	c-0.964,0.666-1.962,1.194-3.166,1.57h-1.067c-0.311,1.16-0.792,2.781-1.171,3.497l-0.671,0.683l-0.964,0.478
	c-1.239,0.648-2.169,0.75-3.374,0.75l-0.309,0.273c-0.104,0.785-0.775,0.785-0.775,1.484c-0.791,0.904-1.205,1.075-1.824,1.825
	L99.757,212.565L99.757,212.565z M94.731,211.609c1.205,0,2.411-0.324,3.581-0.324c1.377-0.955,2.599-1.757,2.96-3.531
	c-1.084-0.529-1.928-0.956-2.564-1.672c-1.153,0-1.738,1.143-3.132,1.143c-0.844,0.051-1.738-0.255-2.444,0.051v0.648
	c-0.207,0.904-0.723,1.058-0.999,1.604C92.924,210.33,93.579,211.405,94.731,211.609L94.731,211.609z M87.864,210.586
	c-0.551-0.256-1.429-0.375-1.979-0.802c-0.998-0.7-2.203-1.757-2.667-2.917v-0.512c0.361-0.563,1.102-1.707,1.841-2.03
	c0.999,0.239,1.928,0,3.132,0l1.205-0.631c0.396,0.085,0.396,0.563,0.809,1.229c0.431,0.665,1.515,0.87,1.928,2.047
	c-0.103,0.955-0.534,2.013-1.273,2.61c-0.654,0.205-1.067,0.75-2.117,1.006H87.864L87.864,210.586z M65.851,209.58
	c1.48,0,2.375-0.495,3.563-0.751h0.568c-0.688-0.802-1.377-1.553-1.532-1.962l-0.362-1.075v-0.546c-2.582,0-4.458-0.921-6.11-2.081
	c-0.447,1.16,0,2.081,0,3.19c0.723,0.87,1.102,1.671,1.773,2.354C64.801,208.982,64.921,209.528,65.851,209.58L65.851,209.58z
	 M73.872,209.528c0.723,0.052,1.394-0.443,1.824-0.443c0.895-0.648,1.618-1.058,2.375-1.45c-0.241-0.768-1.601-0.665-1.825-1.16
	c-0.551-0.683-1.291-1.075-1.498-1.553c-0.155-0.666-0.447-1.144-0.447-1.587c-1.17,0.358-1.721,0.068-2.685-0.17l-0.844,0.921
	c-0.396,0.478-1.153,0.478-1.583,0.563c-0.585,0.751,0,1.707,0.104,2.218c1.153,1.058,1.807,1.962,2.891,2.218
	C72.994,209.084,73.389,209.528,73.872,209.528L73.872,209.528z M78.673,206.798c1.807,0,5.009-0.716,5.008-3.105
	c-1.033-0.291-2.306-1.979-2.306-3.139c-0.603,0-3.751,0-4.062-0.887C73.234,201.22,75.696,205.586,78.673,206.798L78.673,206.798z
	 M65.851,204.324c-3.614-0.239-3.614-5.203-2.564-7.711c1.635,1.16,3.184,1.348,5.164,0.7
	C68.45,201.714,73.872,204.325,65.851,204.324L65.851,204.324z M86.315,203.693c-3.477,0-5.938-5.135-3.339-7.439
	c1.446,0.495,2.633,0.358,4.183,0.358C87.984,199.036,92.029,203.693,86.315,203.693L86.315,203.693z M72.581,202.619
	c-3.976-1.57-3.597-4.692-2.358-8.326c1.962,0.409,2.358,0.887,4.372,0.887c-0.172,1.433,0.895,2.747,1.652,3.737
	c-1.136,1.706-1.652,1.075-2.048,3.463C73.527,202.619,73.131,202.379,72.581,202.619L72.581,202.619z M79,199.667
	c-4.251-2.662-5.731-7.354,0.998-7.354C79.999,193.849,84.577,199.667,79,199.667L79,199.667z M60.326,199.224
	c3.391,0,1.756-5.477,1.756-7.388c-2.513,0-1.894-1.433-3.305-2.474c-2.461,0.427-2.151,6.96-0.74,8.564
	C58.536,198.302,60.188,198.917,60.326,199.224L60.326,199.224z M65.473,196.75c-3.046-0.58-3.236-7.49,0-8.343
	c0.172,1.194,1.824,2.542,3.046,2.542C70.137,193.747,68.777,196.75,65.473,196.75L65.473,196.75z M85.059,195.845
	c-5.972-1.058-5.456-9.127,0.499-9.127c-2.478,4.316,0.5,5.118,2.427,7.131c-0.12,0.853-0.671,0.938-0.998,1.877
	C86.436,195.726,85.885,195.845,85.059,195.845L85.059,195.845z M73.131,194.702c-3.838-1.399-4.612-8.309-1.239-8.309
	c1.05,1.501,1.842,1.911,3.511,2.269c-0.138,0.87,0.757,1.229,0.344,2.184l0.843,0.393
	C76.041,192.177,74.112,194.225,73.131,194.702L73.131,194.702z M78.364,191.392c-3.494-1.194-2.496-5.698,0-7.592
	c0.723,0.529-0.603,3.668,3.012,3.668C79.448,188.918,81.014,191.393,78.364,191.392L78.364,191.392z M60.877,190.949
	c2.753-0.75,1.428-2.286,3.924-3.395c0-1.006-0.258-1.774,0-2.644c-1.515-0.512-2.1-0.956-2.719-2.304
	C58.536,183.8,58.262,188.407,60.877,190.949L60.877,190.949z M68.088,190.079c-3.167-1.075-2.771-6.125-0.757-8.138
	c0.224-0.393,1.119-0.478,1.962-0.887c0.929,0.648,0.516,1.774,1.807,2.03c0.207,0.717,0,1.553,0.207,2.15
	c-1.894,0-2.702,3.515-2.702,4.845H68.088L68.088,190.079z M74.112,187.553c-3.735-3.156-1.532-6.09,1.291-9.451
	c0.189,1.365-0.654,2.815-0.448,4.146c1.842,2.474,0.31,2.542,0.31,5.22L74.112,187.553L74.112,187.553z M64.801,184.073
	c-4.543-2.61-1.618-9.366,4.819-7.063c0.31,0.785-0.327,1.86-0.327,2.884C66.281,181.054,66.35,181.548,64.801,184.073
	L64.801,184.073z M71.307,182.453c-2.788-2.44,0.877-9.759,4.096-6.603C74.422,178.648,72.391,180.013,71.307,182.453
	L71.307,182.453z M62.306,177.795c-1.153-0.597-2.237-1.228-3.649-1.501c-0.826-4.146,3.649-3.975,6.145-3.975
	C66.35,174.331,62.942,176.754,62.306,177.795L62.306,177.795z M69.93,176.088c-1.411-0.239-2.599-1.16-4.286-0.665
	c-0.999-3.651,4.044-6.176,5.972-3.787c0.275,1.057-0.31,1.945,0,3.292C70.859,174.929,70.859,176.362,69.93,176.088L69.93,176.088z
	 M75.696,174.929c-0.619-0.716-2.083-0.392-3.046-0.597c0.585-3.173,1.222-3.804,4.664-3.804c0.964,0.068,1.687,0.255,1.859,1.109
	C77.314,172.318,77.004,173.461,75.696,174.929L75.696,174.929z M80.601,171.636c-0.121-1.041-2.117-1.808-2.978-1.962
	c0-4.163,4.183-0.512,5.594,0.529C82.339,171.158,81.978,171.636,80.601,171.636L80.601,171.636z M65.077,171.397
	c-0.792-0.478-1.446-0.478-2.65-0.478c-0.344-0.853,0-2.047,0.275-3.071l0.482-0.666c0.826-0.495,2.53-0.887,3.7-0.887l0.551,0.085
	c0.327,0.171,1.016,0.768,1.17,1.161c-0.155,0.665,0,1.45-0.155,2.132C66.884,170.066,66.608,170.919,65.077,171.397L65.077,171.397
	z M72.185,171.158c-0.567-0.631-1.807-1.092-2.667-1.484c0.172-3.736,6.523-4.453,7.074,0
	C74.422,169.674,74.198,170.595,72.185,171.158L72.185,171.158z M77.073,167.849c-0.912-1.468-2.324-2.781-4.423-2.03
	c3.598-3.174,3.391-0.597,5.318,1.229L77.073,167.849L77.073,167.849z M61.979,167.183c-0.069-0.495-2.564-0.631-3.202-0.631
	c0.792-1.161,0.93-2.32,1.549-3.396c1.979,0,4.217,0.256,6.351,0.495C65.214,165.068,63.751,166.143,61.979,167.183L61.979,167.183z
	 M69.414,167.149c-0.361-1.211-1.652-1.791-2.805-1.791c0.207-0.888,1.153-0.888,1.738-1.707c1.17,0,4.113-0.341,5.042,0.375
	C72.03,164.607,70.859,166.296,69.414,167.149L69.414,167.149z M121.96,82.974c2.53-1.996,4.079-6.039,7.383-8.223
	c2.53-1.246,3.702-1.428,6.474-0.524c-3.185,2.729-3.22,6.683-7.007,9.378c-0.567,0.358-0.946,0.631-2.237,0.751
	C125.695,84.356,121.96,84.237,121.96,82.974L121.96,82.974z M112.27,82.787c0,1.262,3.735,1.382,4.612,1.382
	c1.291-0.12,1.67-0.393,2.237-0.751c3.787-2.696,4.406-6.381,7.591-9.11c-2.771-0.904-4.526-0.99-7.057,0.255
	C116.349,76.748,114.8,80.791,112.27,82.787L112.27,82.787z M101.599,82.787c2.599-1.997,4.097-6.04,7.366-8.224
	c2.548-1.245,4.337-1.16,7.074-0.255c-3.133,2.729-3.804,6.415-7.573,9.11c-0.551,0.358-0.93,0.631-2.221,0.751
	C105.316,84.169,101.599,84.049,101.599,82.787L101.599,82.787z M91.444,82.787c0,1.262,3.683,1.382,4.561,1.382
	c1.343-0.12,1.772-0.393,2.271-0.751c3.77-2.696,4.407-6.381,7.643-9.11c-2.841-0.904-4.613-0.99-7.058,0.255
	C95.54,76.748,93.957,80.791,91.444,82.787L91.444,82.787z M81.84,82.821c2.513-1.945,4.114-6.005,7.384-8.223
	c2.496-1.229,4.269-1.126,7.074-0.205c-3.201,2.747-3.803,6.397-7.676,9.077c-0.465,0.307-0.878,0.614-2.152,0.785
	C85.558,84.254,81.84,84.083,81.84,82.821L81.84,82.821z M71.531,82.821c0,1.262,3.735,1.433,4.63,1.433
	c1.291-0.171,1.704-0.478,2.289-0.785c3.735-2.679,4.355-6.33,7.573-9.077c-2.805-0.921-4.561-1.024-7.057,0.205
	C75.627,76.816,74.112,80.876,71.531,82.821L71.531,82.821z M61.376,82.821c2.582-1.945,4.096-6.005,7.4-8.223
	c2.53-1.229,4.286-1.126,7.057-0.205c-3.219,2.747-3.838,6.397-7.607,9.077c-0.5,0.307-0.93,0.614-2.221,0.785
	C65.077,84.254,61.376,84.083,61.376,82.821L61.376,82.821z M51.755,82.821c0,1.262,3.735,1.433,4.647,1.433
	c1.256-0.171,1.704-0.478,2.22-0.785c3.752-2.679,4.389-6.33,7.59-9.077c-2.736-0.921-4.543-1.024-7.074,0.205
	C55.852,76.816,54.354,80.876,51.755,82.821L51.755,82.821z M41.119,82.821c2.582-1.945,4.079-6.005,7.383-8.223
	c2.496-1.229,4.251-1.126,7.057-0.205c-3.201,2.747-3.804,6.397-7.572,9.077c-0.568,0.307-0.964,0.614-2.238,0.785
	C44.819,84.254,41.119,84.083,41.119,82.821L41.119,82.821z M30.93,82.821c0,1.262,3.735,1.433,4.664,1.433
	c1.239-0.171,1.721-0.478,2.168-0.785c3.804-2.679,4.406-6.33,7.608-9.077c-2.72-0.921-4.493-1.024-7.022,0.205
	C35.009,76.816,33.494,80.876,30.93,82.821L30.93,82.821z M20.293,82.821c2.53-1.945,4.147-6.005,7.383-8.223
	c2.53-1.229,4.286-1.126,7.074-0.205c-3.27,2.747-3.873,6.397-7.642,9.077c-0.499,0.307-0.912,0.614-2.203,0.785
	C23.994,84.254,20.293,84.083,20.293,82.821L20.293,82.821z M20.723,79.358c1.05-0.785,2.582-2.184,3.374-3.6l0.104-1.194
	c-0.895-0.818-0.654-0.921-1.566-0.921l-1.911,0.103C20.723,75.758,20.723,77.583,20.723,79.358L20.723,79.358z M17.984,69.209
	h117.498v2.352H17.984V69.209L17.984,69.209z M112.477,22.995V6.201h-3.219v14.013L112.477,22.995L112.477,22.995z M132.889,67.791
	c8.313-5.988,3.614-24.584,12.082-33.985c-0.413-1.023-1.635-1.74-2.547-2.747c-9.243,9.64-3.977,27.655-12.943,36.613
	C130.444,67.791,131.598,67.671,132.889,67.791L132.889,67.791z M128.001,67.381c0.12-0.512,0.877-1.058,1.152-2.064
	c-2.926-0.12-5.524,0.085-8.502-0.12c-1.033-0.068-1.721,0.205-1.894,0.597c-0.31,0.802-0.757,1.075-0.86,1.723
	C121.048,67.518,124.868,67.381,128.001,67.381L128.001,67.381z M119.653,64.293c-0.172,0.068,0.603-1.842,0.964-2.405
	c0.24-0.427,0.413-0.632,0.637-0.87c2.84-0.308,7.556-0.631,10.068-0.631c-0.138,1.706-1.153,3.054-1.687,3.975
	C128.311,64.174,122.906,64.037,119.653,64.293L119.653,64.293z M121.374,59.994c-0.155,0.034,0.74-1.997,0.843-2.883
	c0.207-0.546,0.414-0.956,1.067-1.143c3.064-1.006,6.765-1.143,9.604-1.143c-0.241,2.099-0.947,3.173-1.119,4.249
	C130.358,58.833,124.455,58.271,121.374,59.994L121.374,59.994z M123.062,54.636c-0.19,0.069,0.188-1.911,0.567-2.883
	c0.241-0.529,0.551-0.597,0.93-0.956c3.046-1.228,6.971-1.86,9.775-1.859c-0.275,1.706-0.603,3.002-0.93,4.606
	C132.011,53.34,124.559,53.869,123.062,54.636L123.062,54.636z M124.214,48.767c-0.275,0.12,0.379-2.609,0.586-3.463
	c0.292-0.478,0.43-0.733,0.963-1.023c2.909-1.279,6.851-1.962,9.655-1.962c-0.43,1.638-0.532,3.122-0.963,4.862
	C130.358,47.147,124.593,48.767,124.214,48.767L124.214,48.767z M135.986,40.033c-1.273,0.426-8.382,1.125-10.895,2.934
	c0.086-1.125,0.499-2.15,0.671-2.832c0.035-0.631,0.345-1.263,0.861-1.826c1.944-1.314,9.879-4.658,11.687-4.658
	C137.26,35.205,136.348,37.866,135.986,40.033L135.986,40.033z M20.431,67.62c-8.364-5.92-3.631-24.534-12.133-33.968
	c0.396-1.024,1.635-1.74,2.53-2.73c9.26,9.622,3.976,27.553,12.96,36.596C22.823,67.62,21.67,67.518,20.431,67.62L20.431,67.62z
	 M25.474,67.381c-0.068-0.512-0.877-1.058-1.136-2.064c2.943-0.12,5.542,0.085,8.52-0.12c0.964-0.068,1.687,0.205,1.893,0.597
	c0.258,0.802,0.74,1.075,0.843,1.723C32.41,67.518,28.606,67.381,25.474,67.381L25.474,67.381z M33.821,64.293
	c0.224,0.068-0.568-1.842-0.93-2.405c-0.241-0.427-0.43-0.632-0.757-0.87c-2.719-0.308-7.452-0.631-10-0.631
	c0.207,1.706,1.205,3.054,1.721,3.975C25.061,64.174,30.585,64.037,33.821,64.293L33.821,64.293z M32.083,59.994
	c0.172,0.034-0.74-1.997-0.843-2.883c-0.189-0.546-0.379-0.956-1.067-1.143c-3.063-1.006-6.747-1.143-9.552-1.143
	c0.155,2.099,0.878,3.173,1.119,4.249C23.099,58.833,29.037,58.271,32.083,59.994L32.083,59.994z M30.379,54.636
	c0.276,0.069-0.172-1.911-0.499-2.883c-0.275-0.529-0.637-0.597-0.946-0.956c-3.029-1.228-6.954-1.86-9.811-1.859
	c0.292,1.706,0.602,3.002,0.964,4.606C21.463,53.34,28.934,53.869,30.379,54.636L30.379,54.636z M29.243,48.767
	c0.327,0.12-0.31-2.609-0.517-3.463c-0.327-0.478-0.447-0.733-0.947-1.023c-2.96-1.279-6.918-1.962-9.724-1.962
	c0.447,1.638,0.533,3.122,0.998,4.862C23.099,47.147,28.934,48.767,29.243,48.767L29.243,48.767z M17.454,40.033
	c1.325,0.426,8.381,1.125,10.946,2.934c-0.12-1.125-0.533-2.15-0.62-2.832c-0.103-0.631-0.378-1.263-0.98-1.826
	c-1.842-1.314-9.793-4.658-11.687-4.658C16.214,35.205,17.126,37.866,17.454,40.033L17.454,40.033z M77.796,26.896h-2.048v40.486
	h2.048V26.896L77.796,26.896z M53.769,44.861c-0.378-0.956-0.447-2.474-0.447-3.634c5.972-4.692,12.289-7.524,20.292-10.203h0.413
	c0,1.638,0,3.071,0,4.726C65.885,37.491,59.741,41.466,53.769,44.861L53.769,44.861z M54.646,50.235
	c5.646-3.6,14.647-7.473,19.38-8.019v-4.351c-7.47,0.683-14.733,5.613-19.862,8.77C53.889,48.375,54.354,48.938,54.646,50.235
	L54.646,50.235z M56.798,54.739c5.181-3.258,10.757-5.493,17.314-5.852c0-1.57-0.086-3.259-0.086-4.606
	c-8.141,1.023-12.685,3.89-18.571,7.319C55.524,52.982,56.282,54.227,56.798,54.739L56.798,54.739z M59.036,59.397
	c-0.62-0.751-1.136-1.672-1.463-2.986c4.733-2.695,10.878-5.527,16.54-5.527c0,0.938-0.086,3.173-0.086,4.282
	C68.846,54.961,63.476,57.077,59.036,59.397L59.036,59.397z M62.03,63.133c3.976-1.433,8.02-1.979,11.996-1.945
	c0-1.126,0-2.61,0-3.702c-5.421,0-10.224,1.16-13.734,3.224C60.292,61.461,60.98,62.655,62.03,63.133L62.03,63.133z M65.128,67.347
	c0-0.325-1.325-1.553-1.376-2.611c2.599-1.125,6.936-1.774,10.24-1.637v4.248H65.128L65.128,67.347z M88.397,67.347
	c0-0.325,1.239-1.553,1.308-2.611c-2.599-1.125-6.901-1.774-10.206-1.637v4.248H88.397L88.397,67.347z M91.41,63.133
	c-3.941-1.433-7.986-1.979-11.927-1.945c0-1.126,0-2.61,0-3.702c5.37,0,10.154,1.16,13.683,3.224
	C93.165,61.461,92.494,62.655,91.41,63.133L91.41,63.133z M94.508,59.397c0.533-0.751,1.102-1.672,1.463-2.986
	c-4.768-2.695-10.912-5.527-16.558-5.527c0,0.938,0.069,3.173,0.069,4.282C84.646,54.961,90.033,57.077,94.508,59.397L94.508,59.397
	z M96.676,54.739c-5.146-3.258-10.723-5.493-17.263-5.852c0-1.57,0.069-3.259,0.069-4.606c8.141,1.023,12.685,3.89,18.536,7.319
	C97.933,52.982,97.21,54.227,96.676,54.739L96.676,54.739z M98.861,50.235c0.241-1.297,0.724-1.86,0.482-3.6
	c-5.146-3.156-12.426-8.087-19.896-8.77v4.351C84.215,42.762,93.131,46.635,98.861,50.235L98.861,50.235z M99.757,44.861
	c0.259-0.956,0.396-2.474,0.396-3.634c-5.955-4.692-12.289-7.524-20.31-10.203h-0.361c0,1.638,0,3.071,0,4.726
	C87.624,37.491,93.682,41.466,99.757,44.861L99.757,44.861z M69.621,30.001V21.76l14.939,0.034l-0.069,8.138l-4.784-2.082v-3.344
	h-5.715l0.035,3.344L69.621,30.001L69.621,30.001z M75.317,9.903V1.475h2.754v8.428h10.12v2.951h-10.12v7.251h-2.754v-7.251h-9.811
	V9.903H75.317L75.317,9.903z M40.963,22.894V6.201h3.236v13.913L40.963,22.894z"/>
</svg>
